<svg xmlns="http://www.w3.org/2000/svg" xmlns:svg="http://www.w3.org/2000/svg" id="svg852" width="117.021" height="117.021" version="1.1" viewBox="0 0 117.021 117.021" xml:space="preserve"><metadata id="metadata858"/><defs id="defs856"><clipPath id="clipPath870" clipPathUnits="userSpaceOnUse"><path id="path868" d="M 0,0 H 21266 V 3025 H 0 Z"/></clipPath><clipPath id="clipPath876" clipPathUnits="userSpaceOnUse"><path id="path874" d="m 2916.59,2510.25 -971.27,384.08 v 130.87 l 1103.63,-436.41 -132.36,-78.54"/></clipPath><clipPath id="clipPath888" clipPathUnits="userSpaceOnUse"><path id="path886" d="m 1945.32,1934.03 v 852.48 l 862.21,-340.95 -862.21,-511.53"/></clipPath><clipPath id="clipPath900" clipPathUnits="userSpaceOnUse"><path id="path898" d="m 1945.19,1706.25 v -0.01 l -820.49,486.78 820.49,-1146.9 z"/></clipPath><linearGradient id="linearGradient910" x1="0" x2="1" y1="0" y2="0" gradientTransform="matrix(-1103.62,0,0,1103.62,1945.19,1619.57)" gradientUnits="userSpaceOnUse" spreadMethod="pad"><stop style="stop-opacity:1;stop-color:#f8a72c" id="stop902" offset="0"/><stop style="stop-opacity:1;stop-color:#f3c126" id="stop904" offset=".36"/><stop style="stop-opacity:1;stop-color:#eed81f" id="stop906" offset=".638"/><stop style="stop-opacity:1;stop-color:#eed81f" id="stop908" offset="1"/></linearGradient><clipPath id="clipPath920" clipPathUnits="userSpaceOnUse"><path id="path918" d="M 1945.19,1934.04 841.574,2588.79 979.875,2395.46 1945.19,1822.76 Z"/></clipPath><linearGradient id="linearGradient928" x1="0" x2="1" y1="0" y2="0" gradientTransform="matrix(-1103.62,0,0,1103.62,1945.19,2205.77)" gradientUnits="userSpaceOnUse" spreadMethod="pad"><stop style="stop-opacity:1;stop-color:#f8a72c" id="stop922" offset="0"/><stop style="stop-opacity:1;stop-color:#eed81f" id="stop924" offset=".638"/><stop style="stop-opacity:1;stop-color:#eed81f" id="stop926" offset="1"/></linearGradient><clipPath id="clipPath938" clipPathUnits="userSpaceOnUse"><path id="path936" d="m 1945.2,1822.76 965.53,572.69 138.35,193.34 -1103.89,-654.75 v -111.28 z"/></clipPath><linearGradient id="linearGradient948" x1="0" x2="1" y1="0" y2="0" gradientTransform="matrix(-1103.89,0,0,1103.89,3049.08,2205.77)" gradientUnits="userSpaceOnUse" spreadMethod="pad"><stop style="stop-opacity:1;stop-color:#ef2e33" id="stop940" offset="0"/><stop style="stop-opacity:1;stop-color:#ef2e33" id="stop942" offset=".48"/><stop style="stop-opacity:1;stop-color:#f3611b" id="stop944" offset=".858"/><stop style="stop-opacity:1;stop-color:#f3611b" id="stop946" offset="1"/></linearGradient><clipPath id="clipPath958" clipPathUnits="userSpaceOnUse"><path id="path956" d="m 1945.19,1046.12 820.7,1146.91 -820.7,-486.78 z"/></clipPath><linearGradient id="linearGradient968" x1="0" x2="1" y1="0" y2="0" gradientTransform="matrix(-1103.89,0,0,1103.89,3049.08,1619.57)" gradientUnits="userSpaceOnUse" spreadMethod="pad"><stop style="stop-opacity:1;stop-color:#ef2e33" id="stop960" offset="0"/><stop style="stop-opacity:1;stop-color:#ef2e33" id="stop962" offset=".48"/><stop style="stop-opacity:1;stop-color:#f3611b" id="stop964" offset=".858"/><stop style="stop-opacity:1;stop-color:#f3611b" id="stop966" offset="1"/></linearGradient></defs><g id="g860" transform="matrix(1.3333333,0,0,-1.3333333,-807.08331,449.66185)"><rect style="opacity:0;fill:#fff;fill-opacity:0;stroke:none;stroke-width:1.41732287;stroke-linecap:round" id="rect5451" width="142.901" height="142.901" x="579.839" y="-346.772" transform="scale(1,-1)"/><rect style="opacity:0;fill:#fff;fill-opacity:0;stroke:none;stroke-width:1.51439977;stroke-linecap:round" id="rect5453" width="87.766" height="87.766" x="605.313" y="-337.246" transform="scale(1,-1)"/><rect style="opacity:.53480003;fill:none;fill-opacity:1;stroke:none;stroke-width:1.41732287;stroke-linecap:round" id="rect1016" width="216" height="239" x="475.148" y="-37.258" transform="scale(1,-1)"/><g id="g5449" transform="matrix(1.0900289,0.14931539,-0.14931539,1.0900289,-14.473863,-124.42737)"><g id="g5432"><path id="path992" d="m 609.57618,290.91846 10.92959,-25.22707 2.14375,2.14376 -9.61847,22.20153 -3.45487,0.88178" style="fill:#c01c2d;fill-opacity:1;fill-rule:nonzero;stroke:none;stroke-width:.02316593"/><path style="fill:#94aac4;fill-opacity:1;fill-rule:nonzero;stroke:none;stroke-width:.02316593" id="path994" d="m 615.00733,291.82127 -5.43325,-0.90062 12.5303,-3.20036 -6.2273,1.58983 8.53859,-19.70881 13.96301,13.96302 0.003,-10e-4 7.35257,-28.80358 0.90165,5.43256 -6.43161,25.19398 z m -5.43121,-0.90266 10.92962,-25.22723 2.14364,2.14364 -9.61839,22.20163 z"/><path style="fill:#444b59;fill-opacity:1;fill-rule:nonzero;stroke:none;stroke-width:.02316593" id="path1000" d="m 652.92673,298.10831 -32.23097,-5.34367 21.41742,-5.46989 v 0 l 5.46651,-21.41401 z"/></g><g id="g5437" transform="translate(-7.5,-7.5)"><path style="fill:#c01c2d;fill-opacity:1;fill-rule:nonzero;stroke:none;stroke-width:.02316593" id="path5211" d="m 696.27741,305.29785 -10.92959,25.22707 -2.14376,-2.14375 9.61848,-22.20154 3.45487,-0.88178"/><path style="fill:#94aac4;fill-opacity:1;fill-rule:nonzero;stroke:none;stroke-width:.02316593" id="path5213" d="m 660.11881,341.45654 -0.9013,-5.43257 6.43126,-25.19397 25.19737,-6.43499 5.43325,0.90062 -12.73732,3.25296 6.43432,-1.64243 -8.53859,19.7088 -13.96268,-13.96268 -0.003,7e-4 z m 25.22892,-10.93165 -2.14364,-2.14364 9.61839,-22.20163 3.45487,-0.88162 z"/><path style="fill:#444b59;fill-opacity:1;fill-rule:nonzero;stroke:none;stroke-width:.02316593" id="path5219" d="m 658.27378,330.33554 -5.34705,-32.22723 32.23098,5.34332 -21.41742,5.4699 v 0 z"/></g></g></g></svg>